<?xml version="1.0" encoding="UTF-8" standalone="no"?>
<svg
   xmlns:dc="http://purl.org/dc/elements/1.1/"
   xmlns:cc="http://creativecommons.org/ns#"
   xmlns:rdf="http://www.w3.org/1999/02/22-rdf-syntax-ns#"
   xmlns:svg="http://www.w3.org/2000/svg"
   xmlns="http://www.w3.org/2000/svg"
   xmlns:sodipodi="http://sodipodi.sourceforge.net/DTD/sodipodi-0.dtd"
   xmlns:inkscape="http://www.inkscape.org/namespaces/inkscape"
   height="110px"
   style="enable-background:new 0 0 110 110;"
   version="1.0"
   viewBox="0 0 110 110"
   width="110px"
   xml:space="preserve"
   id="svg4626"
   sodipodi:docname="mws-restaurants.svg"
   inkscape:version="0.92.3 (2405546, 2018-03-11)"><metadata
     id="metadata4632"><rdf:RDF><cc:Work
         rdf:about=""><dc:format>image/svg+xml</dc:format><dc:type
           rdf:resource="http://purl.org/dc/dcmitype/StillImage" /><dc:title></dc:title></cc:Work></rdf:RDF></metadata><defs
     id="defs4630" /><sodipodi:namedview
     pagecolor="#ffffff"
     bordercolor="#666666"
     borderopacity="1"
     objecttolerance="10"
     gridtolerance="10"
     guidetolerance="10"
     inkscape:pageopacity="0"
     inkscape:pageshadow="2"
     inkscape:window-width="1920"
     inkscape:window-height="1018"
     id="namedview4628"
     showgrid="false"
     inkscape:zoom="7.4454545"
     inkscape:cx="55"
     inkscape:cy="55"
     inkscape:window-x="-8"
     inkscape:window-y="-8"
     inkscape:window-maximized="1"
     inkscape:current-layer="Multicolor" /><g
     id="Artboard" /><g
     id="Multicolor"><circle
       cx="55"
       cy="55"
       r="55"
       style="fill:#3397db;fill-opacity:1"
       id="circle4589" /><g
       id="g4623"><g
         id="g4593"><path
           d="M37,79c0,0,3.778-10.39-2.436-17.401c-0.339-0.383-0.336-0.96,0.01-1.337     C36.719,57.917,40.528,57.967,46,68c1.429,2.619,4.409,2.479,7,1c4.928-2.813,12.04-11.775,19.5-9.592     c0.339,0.099,0.601,0.37,0.688,0.712c0.087,0.342-0.013,0.705-0.263,0.955L47,87L37,79z"
           style="fill:#FBC8C8;"
           id="path4591" /></g><g
         id="g4597"><path
           d="M87,58c0,0.552-0.448,1-1,1H24c-0.552,0-1-0.448-1-1v-2c0-0.552,0.448-1,1-1h62     c0.552,0,1,0.448,1,1V58z"
           style="fill:#F0F1F1;"
           id="path4595" /></g><g
         id="g4601"><path
           d="M55,27c1.042,0,2.034,0.046,3,0.115V24c0-0.552-0.448-1-1-1h-4c-0.552,0-1,0.448-1,1v3.115     C52.966,27.046,53.958,27,55,27z"
           style="fill:#FFFFFF;"
           id="path4599" /></g><g
         id="g4605"><path
           d="M27,55c0,0-1-28,28-28s28,28,28,28H27z"
           style="fill:#E2E4E5;"
           id="path4603" /></g><g
         id="g4609"><polygon
           points="37,79 27,87 47,87    "
           style="fill:#3E3E3F;"
           id="polygon4607" /></g><g
         id="g4613"><path
           d="M55,27c-29,0-28,28-28,28h28V27z"
           style="fill:#FFFFFF;"
           id="path4611" /></g><g
         id="g4617"><path
           d="M37,79c0,0,3.778-10.39-2.436-17.401c-0.339-0.383-0.336-0.96,0.01-1.337     C36.719,57.917,40.528,57.967,46,68c1.429,2.619,4.409,2.479,7,1c4.928-2.813,12.04-11.775,19.5-9.592     c0.339,0.099,0.601,0.37,0.688,0.712c0.087,0.342-0.013,0.705-0.263,0.955L47,87L37,79z"
           style="fill:#FBC8C8;"
           id="path4615" /></g><g
         id="g4621"><path
           d="M72.925,61.075c0.25-0.25,0.35-0.612,0.263-0.955s-0.349-0.613-0.688-0.712     C65.04,57.226,57.928,66.187,53,69c-2.591,1.479-5.571,1.619-7-1c-5.472-10.033-9.281-10.083-11.426-7.738     c-0.345,0.377-0.349,0.955-0.01,1.337C40.778,68.609,37,79,37,79l2.727,2.182l30.975-17.884L72.925,61.075z"
           style="fill:#F7B4B4;"
           id="path4619" /></g></g></g></svg>